<?xml version="1.0" encoding="utf-8"?>
<!-- Generator: Adobe Illustrator 17.1.0, SVG Export Plug-In . SVG Version: 6.00 Build 0)  -->
<!DOCTYPE svg PUBLIC "-//W3C//DTD SVG 1.1//EN" "http://www.w3.org/Graphics/SVG/1.1/DTD/svg11.dtd">
<svg version="1.1" id="Layer_1" xmlns="http://www.w3.org/2000/svg" xmlns:xlink="http://www.w3.org/1999/xlink" x="0px" y="0px"
	 viewBox="0 0 240 240" enable-background="new 0 0 240 240" xml:space="preserve">
<path fill="#33CC99" d="M159.7,154H82.3c-6.8,0-12.3-5.5-12.3-12.3V96.3C70,89.5,75.5,84,82.3,84h77.4c6.8,0,12.3,5.5,12.3,12.3
	v45.4C172,148.5,166.5,154,159.7,154z M82.3,89c-4,0-7.3,3.3-7.3,7.3v45.4c0,4,3.3,7.3,7.3,7.3h77.4c4,0,7.3-3.3,7.3-7.3V96.3
	c0-4-3.3-7.3-7.3-7.3H82.3z"/>
<path fill="#33CC99" d="M111.5,138c-0.4,0-0.8-0.1-1.2-0.3c-0.8-0.4-1.3-1.3-1.3-2.2v-33.7c0-0.9,0.5-1.8,1.4-2.2
	c0.8-0.4,1.8-0.3,2.6,0.2l25.3,18.4c0.7,0.5,1.1,1.3,1,2.1s-0.5,1.6-1.2,2l-25.3,15.4C112.4,137.9,112,138,111.5,138z M114,106.7
	v24.4l18.3-11.1L114,106.7z"/>
<path fill="#33CC99" d="M120.2,209.1c-48.8,0-88.5-39.7-88.5-88.5c0-48.8,39.7-88.5,88.5-88.5c31.7,0,61.2,17.1,76.9,44.7
	c0.7,1.2,0.3,2.7-0.9,3.4c-1.2,0.7-2.7,0.3-3.4-0.9c-14.8-26-42.6-42.2-72.6-42.2c-46,0-83.5,37.4-83.5,83.5
	c0,46,37.4,83.5,83.5,83.5c46,0,83.5-37.4,83.5-83.5c0-7.9-1.1-15.6-3.2-23.1c-0.4-1.3,0.4-2.7,1.7-3.1c1.3-0.4,2.7,0.4,3.1,1.7
	c2.3,7.9,3.4,16.2,3.4,24.5C208.6,169.4,168.9,209.1,120.2,209.1z"/>
<path fill="#33CC99" d="M120.2,220.7c-55.2,0-100.1-44.9-100.1-100.1c0-26.6,10.3-51.6,29-70.5c1-1,2.6-1,3.5,0c1,1,1,2.6,0,3.5
	c-17.8,17.9-27.6,41.7-27.6,67c0,52.4,42.7,95.1,95.1,95.1s95.1-42.7,95.1-95.1s-42.7-95.1-95.1-95.1c-19.4,0-38.1,5.8-54,16.8
	c-1.1,0.8-2.7,0.5-3.5-0.6c-0.8-1.1-0.5-2.7,0.6-3.5c16.7-11.6,36.4-17.7,56.8-17.7c55.2,0,100.1,44.9,100.1,100.1
	S175.4,220.7,120.2,220.7z"/>
</svg>
