<?xml version="1.0" encoding="utf-8"?>
<!-- Generator: Adobe Illustrator 17.1.0, SVG Export Plug-In . SVG Version: 6.00 Build 0)  -->
<!DOCTYPE svg PUBLIC "-//W3C//DTD SVG 1.1//EN" "http://www.w3.org/Graphics/SVG/1.1/DTD/svg11.dtd">
<svg version="1.1" id="Layer_1" xmlns="http://www.w3.org/2000/svg" xmlns:xlink="http://www.w3.org/1999/xlink" x="0px" y="0px"
	 viewBox="0 0 240 240" enable-background="new 0 0 240 240" xml:space="preserve">
<path fill="#00AFD8" d="M121.4,151.7c-17.7,0-32-14.4-32-32.1c0-3.1,0.4-6.1,1.3-9.1c0.4-1.3,1.8-2.1,3.1-1.7
	c1.3,0.4,2.1,1.8,1.7,3.1c-0.7,2.5-1.1,5.1-1.1,7.7c0,14.9,12.1,27.1,27,27.1c2.5,0,4.9-0.3,7.2-1c1.3-0.4,2.7,0.4,3.1,1.7
	c0.4,1.3-0.4,2.7-1.7,3.1C127.2,151.3,124.3,151.7,121.4,151.7z"/>
<path fill="#00AFD8" d="M149.9,130.2c-0.2,0-0.5,0-0.7-0.1c-1.3-0.4-2.1-1.8-1.7-3.1c0.7-2.4,1-4.9,1-7.4c0-14.9-12.1-27-27-27
	c-2.6,0-5.1,0.4-7.6,1.1c-1.3,0.4-2.7-0.4-3.1-1.7s0.4-2.7,1.7-3.1c2.9-0.8,5.9-1.3,9-1.3c17.7,0,32,14.4,32,32c0,3-0.4,5.9-1.2,8.7
	C152,129.5,151,130.2,149.9,130.2z"/>
<path fill="#00AFD8" d="M171.9,152.8c-0.2,0-0.3,0-0.5-0.1c-1.4-0.3-2.2-1.6-1.9-3c1.6-7.6,0.8-15.4-2.4-22.7l-4-9.2
	c-1.9-4.3-2.8-8.8-2.8-13.6c0-8.4,3-16.4,8.5-22.5l-17-18c-4.5,3.9-10.1,6-16,6c-5.6,0-10.9-1.9-15.4-5.5c-4.4,3.6-9.7,5.5-15.4,5.5
	c-5.8,0-11.5-2.1-16-6l-1.8,1.9c-0.9,1-2.5,1.1-3.5,0.1c-1-0.9-1.1-2.5-0.1-3.5l2.2-2.3c1.6-1.7,4.3-1.8,6.1-0.2
	c3.6,3.3,8.3,5.1,13.1,5.1c4.6,0,9-1.6,12.6-4.7c1.6-1.4,4-1.4,5.6,0c3.6,3.1,8,4.7,12.6,4.7c4.8,0,9.5-1.8,13.1-5.1
	c1.8-1.6,4.4-1.5,6.1,0.2l17.8,18.8c1.6,1.7,1.6,4.4,0,6.2c-4.8,5.2-7.5,12.1-7.5,19.4c0,4,0.8,7.9,2.4,11.6l4,9.2
	c3.6,8.2,4.5,17.1,2.7,25.7C174.1,151.9,173.1,152.8,171.9,152.8z"/>
<path fill="#00AFD8" d="M120.5,196.8c-1.3,0-2.6-0.6-3.4-1.7c-5.2-6.7-12.6-11.3-20.7-12.9c-0.8-0.2-1.5-0.3-2-0.5
	c-11-3.2-20.1-11.4-25-22.4c-4.9-11-4.9-23.2-0.1-34.3l4-9.2c1.6-3.7,2.4-7.5,2.4-11.6c0-3.3-0.5-6.5-1.6-9.5
	c-0.4-1.3,0.2-2.7,1.6-3.2c1.3-0.4,2.7,0.2,3.2,1.6c1.2,3.6,1.8,7.3,1.8,11.1c0,4.7-0.9,9.3-2.8,13.6l-4,9.2
	c-4.3,9.8-4.2,20.5,0.1,30.3c4.3,9.7,12.2,16.8,21.8,19.6c0.3,0.1,0.8,0.2,1.6,0.4c9,1.9,17.2,6.9,23.1,14.1
	c5.9-7.3,14.1-12.3,23.1-14.1c0.7-0.1,1.2-0.3,1.6-0.4c3.1-0.9,6-2.2,8.7-4c1.2-0.8,2.7-0.4,3.5,0.7s0.4,2.7-0.7,3.5
	c-3.1,2-6.5,3.6-10,4.6c-0.5,0.2-1.2,0.3-2,0.5c-8.1,1.7-15.5,6.3-20.7,12.9C123,196.2,121.8,196.8,120.5,196.8z"/>
<path fill="#00AFD8" d="M120,220.8c-55.6,0-100.8-45.2-100.8-100.8S64.4,19.2,120,19.2c30.8,0,59.5,13.8,78.8,37.9
	c0.9,1.1,0.7,2.7-0.4,3.5c-1.1,0.9-2.7,0.7-3.5-0.4c-18.3-22.9-45.6-36-74.9-36c-52.8,0-95.8,43-95.8,95.8s43,95.8,95.8,95.8
	s95.8-43,95.8-95.8c0-17.5-4.8-34.7-13.8-49.6c-0.7-1.2-0.3-2.7,0.8-3.4c1.2-0.7,2.7-0.3,3.4,0.8c9.5,15.7,14.5,33.7,14.5,52.2
	C220.8,175.6,175.6,220.8,120,220.8z"/>
<path fill="#00AFD8" d="M120,209.9c-22.4,0-43.8-8.3-60.4-23.3c-1-0.9-1.1-2.5-0.2-3.5c0.9-1,2.5-1.1,3.5-0.2
	c15.6,14.2,35.9,22,57,22c20.1,0,39.4-7.1,54.7-20L68.1,78.2L55.2,65.1c-13,15.2-20.1,34.6-20.1,54.9c0,19.7,6.9,38.9,19.4,54
	c0.9,1.1,0.7,2.6-0.3,3.5c-1.1,0.9-2.6,0.7-3.5-0.3c-13.2-16-20.5-36.4-20.5-57.2c0-22.4,8.2-43.8,23.1-60.2
	c0.5-0.5,1.1-0.8,1.8-0.8c0.7,0,1.3,0.3,1.8,0.7l14.8,15l108.5,108.6c0.5,0.5,0.7,1.1,0.7,1.8s-0.3,1.3-0.8,1.8
	C163.5,201.7,142.2,209.9,120,209.9z"/>
<path fill="#00AFD8" d="M186.3,179.4c-0.7,0-1.3-0.3-1.8-0.7L76.5,70.4l-15-15c-0.5-0.5-0.8-1.2-0.7-1.9c0-0.7,0.4-1.4,0.9-1.8
	C78,37.9,99.3,30.1,120,30.1c49.6,0,89.9,40.3,89.9,89.9c0,21.5-7.7,42.3-21.7,58.6C187.8,179.1,187.1,179.4,186.3,179.4
	C186.4,179.4,186.4,179.4,186.3,179.4z M66.9,53.7L80,66.8l106.1,106.4c12.1-15,18.8-33.8,18.8-53.2c0-46.8-38.1-84.9-84.9-84.9
	C101.3,35.1,82.1,41.9,66.9,53.7z"/>
</svg>
