<?xml version="1.0" encoding="utf-8"?>
<!-- Generator: Adobe Illustrator 17.1.0, SVG Export Plug-In . SVG Version: 6.00 Build 0)  -->
<!DOCTYPE svg PUBLIC "-//W3C//DTD SVG 1.1//EN" "http://www.w3.org/Graphics/SVG/1.1/DTD/svg11.dtd">
<svg version="1.1" id="Layer_1" xmlns="http://www.w3.org/2000/svg" xmlns:xlink="http://www.w3.org/1999/xlink" x="0px" y="0px"
	 viewBox="0 0 240 240" enable-background="new 0 0 240 240" xml:space="preserve">
<path fill="#33CCCC" d="M120,220.8c-55.6,0-100.8-45.2-100.8-100.8S64.4,19.2,120,19.2c30.8,0,59.5,13.8,78.8,37.9
	c0.9,1.1,0.7,2.7-0.4,3.5c-1.1,0.9-2.7,0.7-3.5-0.4c-18.3-22.9-45.6-36-74.9-36c-52.8,0-95.8,43-95.8,95.8s43,95.8,95.8,95.8
	s95.8-43,95.8-95.8c0-17.5-4.8-34.7-13.8-49.6c-0.7-1.2-0.3-2.7,0.8-3.4c1.2-0.7,2.7-0.3,3.4,0.8c9.5,15.7,14.5,33.7,14.5,52.2
	C220.8,175.6,175.6,220.8,120,220.8z"/>
<path fill="#33CCCC" d="M120,209.9c-22.4,0-43.8-8.3-60.4-23.3c-1-0.9-1.1-2.5-0.2-3.5c0.9-1,2.5-1.1,3.5-0.2
	c15.6,14.2,35.9,22,57,22c20.1,0,39.4-7.1,54.7-20L68.1,78.2L55.2,65.1c-13,15.2-20.1,34.6-20.1,54.9c0,19.7,6.9,38.9,19.4,54
	c0.9,1.1,0.7,2.6-0.3,3.5c-1.1,0.9-2.6,0.7-3.5-0.3c-13.2-16-20.5-36.4-20.5-57.2c0-22.4,8.2-43.8,23.1-60.2
	c0.5-0.5,1.1-0.8,1.8-0.8c0.7,0,1.3,0.3,1.8,0.7l14.8,15l108.5,108.6c0.5,0.5,0.7,1.1,0.7,1.8s-0.3,1.3-0.8,1.8
	C163.5,201.7,142.2,209.9,120,209.9z"/>
<path fill="#33CCCC" d="M186.3,179.4c-0.7,0-1.3-0.3-1.8-0.7L76.5,70.4l-15-15c-0.5-0.5-0.8-1.2-0.7-1.9c0-0.7,0.4-1.4,0.9-1.8
	C78,37.9,99.3,30.1,120,30.1c49.6,0,89.9,40.3,89.9,89.9c0,21.5-7.7,42.3-21.7,58.6C187.8,179.1,187.1,179.4,186.3,179.4
	C186.4,179.4,186.4,179.4,186.3,179.4z M66.9,53.7L80,66.8l106.1,106.4c12.1-15,18.8-33.8,18.8-53.2c0-46.8-38.1-84.9-84.9-84.9
	C101.3,35.1,82.1,41.9,66.9,53.7z"/>
<path fill="#33CCCC" d="M111.8,176.9c-1.4,0-2.5-1.1-2.5-2.5v-0.1c0-6.3,4.2-11.3,9.4-11.3h17.2c5.2,0,9.4,5.1,9.4,11.3
	c0,1.4-1.1,2.5-2.5,2.5s-2.5-1.1-2.5-2.5c0-3.4-2-6.3-4.4-6.3h-17.2c-2.4,0-4.4,2.9-4.4,6.3C114.3,175.7,113.2,176.9,111.8,176.9z"
	/>
<path fill="#33CCCC" d="M151.8,185.8c-1.4,0-2.5-1.1-2.5-2.5c0-3.5-2-6.4-4.4-6.4h-35.3c-2.4,0-4.4,2.9-4.4,6.3
	c0,1.4-1.1,2.5-2.5,2.5s-2.5-1.1-2.5-2.5v-0.1c0-6.3,4.2-11.3,9.4-11.3H145c5.2,0,9.4,5.1,9.4,11.3
	C154.3,184.6,153.2,185.8,151.8,185.8z"/>
<path fill="#33CCCC" d="M151.8,185.8h-49.1c-1.4,0-2.5-1.1-2.5-2.5s1.1-2.5,2.5-2.5h49.1c1.4,0,2.5,1.1,2.5,2.5
	S153.2,185.8,151.8,185.8z"/>
<path fill="#33CCCC" d="M157.3,117.9c-0.6,0-1.3-0.2-1.8-0.7l-35.2-35.2c-1-1-1-2.6,0-3.5l21.5-21.5c1-1,2.6-1,3.5,0l35.2,35.2
	c1,1,1,2.6,0,3.5l-21.5,21.5C158.6,117.6,158,117.9,157.3,117.9z M125.7,80.2l31.6,31.6l18-18l-31.6-31.6L125.7,80.2z"/>
<path fill="#33CCCC" d="M170.7,131.3c-0.6,0-1.3-0.2-1.8-0.7l-6.8-6.8c-0.5-0.5-0.7-1.1-0.7-1.8s0.3-1.3,0.7-1.8l21.5-21.5
	c1-1,2.6-1,3.5,0l6.8,6.8c0.5,0.5,0.7,1.1,0.7,1.8s-0.3,1.3-0.7,1.8l-21.5,21.5C172,131,171.4,131.3,170.7,131.3z M167.5,122
	l3.2,3.2l18-18l-3.2-3.2L167.5,122z"/>
<path fill="#33CCCC" d="M181.8,106.6c-0.6,0-1.3-0.2-1.8-0.7l-6.6-6.6c-1-1-1-2.6,0-3.5c1-1,2.6-1,3.5,0l6.6,6.6c1,1,1,2.6,0,3.5
	C183.1,106.4,182.5,106.6,181.8,106.6z"/>
<path fill="#33CCCC" d="M167.7,120.8c-0.6,0-1.3-0.2-1.8-0.7l-6.6-6.6c-1-1-1-2.6,0-3.5c1-1,2.6-1,3.5,0l6.6,6.6c1,1,1,2.6,0,3.5
	C169,120.5,168.3,120.8,167.7,120.8z"/>
<path fill="#33CCCC" d="M115.5,76c-0.6,0-1.3-0.2-1.8-0.7l-6.8-6.8c-0.5-0.5-0.7-1.1-0.7-1.8s0.3-1.3,0.7-1.8l21.5-21.5
	c1-1,2.6-1,3.5,0l6.8,6.8c0.5,0.5,0.7,1.1,0.7,1.8s-0.3,1.3-0.7,1.8l-21.5,21.5C116.8,75.8,116.1,76,115.5,76z M112.3,66.8l3.2,3.2
	l18-18l-3.2-3.2L112.3,66.8z"/>
<path fill="#33CCCC" d="M125.8,79c-0.6,0-1.3-0.2-1.8-0.7l-6.6-6.6c-1-1-1-2.6,0-3.5c1-1,2.6-1,3.5,0l6.6,6.6c1,1,1,2.6,0,3.5
	C127.1,78.8,126.5,79,125.8,79z"/>
<path fill="#33CCCC" d="M137.7,67.1c-0.6,0-1.3-0.2-1.8-0.7l-6.2-6.2c-1-1-1-2.6,0-3.5c1-1,2.6-1,3.5,0l6.2,6.2c1,1,1,2.6,0,3.5
	C139,66.9,138.3,67.1,137.7,67.1z"/>
<path fill="#33CCCC" d="M73.2,174.4c-0.6,0-1.3-0.2-1.8-0.7l-7.6-7.6c-0.5-0.5-0.7-1.1-0.7-1.8s0.3-1.3,0.7-1.8l39.1-39.1
	c1-1,2.6-1,3.5,0s1,2.6,0,3.5l-37.4,37.4l4.1,4.1l36.9-36.9c1-1,2.6-1,3.5,0s1,2.6,0,3.5l-38.6,38.6
	C74.5,174.2,73.8,174.4,73.2,174.4z"/>
<path fill="#33CCCC" d="M134.3,113.3c-0.6,0-1.3-0.2-1.8-0.7c-1-1-1-2.6,0-3.5l7.5-7.5l-4.1-4.1l-7.5,7.5c-1,1-2.6,1-3.5,0
	c-1-1-1-2.6,0-3.5l9.2-9.2c1-1,2.6-1,3.5,0l7.6,7.6c0.5,0.5,0.7,1.1,0.7,1.8s-0.3,1.3-0.7,1.8l-9.2,9.2
	C135.6,113.1,134.9,113.3,134.3,113.3z"/>
</svg>
