<?xml version="1.0" encoding="utf-8"?>
<!-- Generator: Adobe Illustrator 17.1.0, SVG Export Plug-In . SVG Version: 6.00 Build 0)  -->
<!DOCTYPE svg PUBLIC "-//W3C//DTD SVG 1.1//EN" "http://www.w3.org/Graphics/SVG/1.1/DTD/svg11.dtd">
<svg version="1.1" id="Layer_1" xmlns="http://www.w3.org/2000/svg" xmlns:xlink="http://www.w3.org/1999/xlink" x="0px" y="0px"
	 viewBox="0 0 240 240" enable-background="new 0 0 240 240" xml:space="preserve">
<path fill="#428BCA" d="M69.2,150.6c-5.7,0-11-3.5-13.2-9.1L52,131c-1.3-3.5-1.2-7.3,0.3-10.8c1.5-3.4,4.3-6.1,7.8-7.4l22.6-8.6
	c1.3-0.5,2.7,0.2,3.2,1.4c0.5,1.3-0.2,2.7-1.4,3.2L62,117.5c-4.7,1.8-7,7-5.2,11.7l4,10.5c1.8,4.7,7,7,11.7,5.2l23.8-9.1
	c5-1.8,9.8-3.3,14.3-4.5c1.3-0.4,2.7,0.4,3.1,1.8c0.4,1.3-0.4,2.7-1.8,3.1c-4.4,1.2-9.1,2.7-13.9,4.4l-23.8,9.1
	C72.6,150.3,70.9,150.6,69.2,150.6z"/>
<path fill="#428BCA" d="M159.1,137.6c-0.8,0-1.6-0.2-2.3-0.7c-2.2-1.3-4.7-2.4-7.5-3.1c-1.3-0.4-2.1-1.7-1.8-3.1
	c0.4-1.3,1.7-2.1,3.1-1.8c2.8,0.7,5.4,1.8,7.7,3l-23.6-61.9c-2.2,6.1-7.7,14.9-21.2,24.1c-1.1,0.8-2.7,0.5-3.5-0.7
	c-0.8-1.1-0.5-2.7,0.7-3.5c13.3-9.1,18-17.3,19.6-22.7c0.6-1.8,2.2-3.1,4.2-3.2c1.9-0.1,3.6,1,4.3,2.8l24.6,64.5
	c0.7,1.8,0.2,3.7-1.3,5C161.2,137.2,160.1,137.6,159.1,137.6z"/>
<path fill="#428BCA" d="M96.2,175.2c-3.2,0-6-1.8-7.5-4.6l-12.4-24.2c-0.3-0.6-0.4-1.4-0.1-2s0.8-1.2,1.4-1.4l14.3-5.5
	c1.2-0.5,2.5,0.1,3.1,1.2l11.8,23.1c1.1,2.1,1.2,4.6,0.4,6.8c-0.9,2.2-2.6,4-4.8,4.8l-3.2,1.2C98.2,175.1,97.2,175.2,96.2,175.2z
	 M82,146.6l11.1,21.7c0.8,1.5,2.6,2.2,4.2,1.6l3.2-1.2c0.9-0.3,1.6-1,2-2c0.4-0.9,0.3-1.9-0.1-2.8L91.6,143L82,146.6z"/>
<path fill="#428BCA" d="M154.8,118.7c-1,0-2-0.6-2.3-1.6L140.2,85c-0.5-1.3,0.2-2.7,1.4-3.2l0.1,0c1.6-0.6,3.3-0.9,5-0.9
	c5.6,0,10.5,3.3,12.5,8.4l4.6,12.1c2.6,6.8-1,14.5-8.1,17.2l-0.1,0C155.4,118.6,155.1,118.7,154.8,118.7z M145.9,85.8l10.2,26.8
	c3-2.2,4.4-6.1,3.1-9.6L154.6,91c-1.2-3.1-4.3-5.2-7.8-5.2C146.5,85.8,146.2,85.8,145.9,85.8z"/>
<path fill="#428BCA" d="M169.2,94.6c-1,0-2-0.6-2.3-1.6c-0.5-1.3,0.2-2.7,1.4-3.2l14.1-5.4c1.3-0.5,2.7,0.2,3.2,1.4
	c0.5,1.3-0.2,2.7-1.4,3.2l-14.1,5.4C169.8,94.5,169.5,94.6,169.2,94.6z"/>
<path fill="#428BCA" d="M162.9,78c-0.3,0-0.7-0.1-1-0.2c-1.3-0.6-1.8-2-1.3-3.3l6.2-13.8c0.6-1.3,2-1.8,3.3-1.3
	c1.3,0.6,1.8,2,1.3,3.3l-6.2,13.8C164.8,77.5,163.9,78,162.9,78z"/>
<path fill="#428BCA" d="M189.6,118.1c-0.3,0-0.7-0.1-1-0.2l-13.8-6.2c-1.3-0.6-1.8-2-1.3-3.3c0.6-1.3,2-1.8,3.3-1.3l13.8,6.2
	c1.3,0.6,1.8,2,1.3,3.3C191.5,117.5,190.6,118.1,189.6,118.1z"/>
<path fill="#428BCA" d="M120,220.8c-30.8,0-59.5-13.8-78.8-37.9c-0.9-1.1-0.7-2.7,0.4-3.5c1.1-0.9,2.6-0.7,3.5,0.4
	c18.3,22.9,45.6,36,74.9,36c52.8,0,95.8-43,95.8-95.8s-43-95.8-95.8-95.8s-95.8,43-95.8,95.8c0,17.5,4.8,34.7,13.8,49.6
	c0.7,1.2,0.3,2.7-0.8,3.4c-1.2,0.7-2.7,0.3-3.4-0.8c-9.5-15.7-14.5-33.7-14.5-52.2C19.2,64.4,64.4,19.2,120,19.2
	S220.8,64.4,220.8,120S175.6,220.8,120,220.8z"/>
<path fill="#428BCA" d="M184.9,181c-0.7,0-1.3-0.3-1.8-0.7l-14.8-15L59.8,56.7c-0.5-0.5-0.7-1.1-0.7-1.8c0-0.7,0.3-1.3,0.8-1.8
	c16.5-14.8,37.8-23,60.1-23c22.4,0,43.8,8.3,60.4,23.3c1,0.9,1.1,2.5,0.2,3.5c-0.9,1-2.5,1.1-3.5,0.2c-15.6-14.2-35.9-22-57-22
	c-20.1,0-39.4,7.1-54.7,20l106.6,106.7l12.9,13.1c13-15.2,20.1-34.6,20.1-54.9c0-19.7-6.9-38.9-19.4-54c-0.9-1.1-0.7-2.6,0.3-3.5
	c1.1-0.9,2.6-0.7,3.5,0.3c13.2,16,20.5,36.4,20.5,57.2c0,22.4-8.2,43.8-23.1,60.2C186.3,180.7,185.7,181,184.9,181
	C185,181,185,181,184.9,181z"/>
<path fill="#428BCA" d="M120,209.9c-49.6,0-89.9-40.3-89.9-89.9c0-21.5,7.7-42.3,21.7-58.6c0.5-0.5,1.1-0.8,1.8-0.9
	c0.7,0,1.4,0.2,1.9,0.7l123.1,123.4c0.5,0.5,0.8,1.2,0.7,1.9c0,0.7-0.4,1.4-0.9,1.8C162,202.1,140.7,209.9,120,209.9z M53.8,66.8
	c-12.1,15-18.8,33.8-18.8,53.2c0,46.8,38.1,84.9,84.9,84.9c18.7,0,37.9-6.8,53.1-18.7L53.8,66.8z"/>
<path fill="#428BCA" d="M83.8,142.8c-1,0-1.9-0.6-2.3-1.6L71,114.8c-0.5-1.3,0.1-2.7,1.4-3.2c1.3-0.5,2.7,0.1,3.2,1.4l10.4,26.4
	c0.5,1.3-0.1,2.7-1.4,3.2C84.4,142.7,84.1,142.8,83.8,142.8z"/>
</svg>
