<?xml version="1.0" encoding="utf-8"?>
<!-- Generator: Adobe Illustrator 17.1.0, SVG Export Plug-In . SVG Version: 6.00 Build 0)  -->
<!DOCTYPE svg PUBLIC "-//W3C//DTD SVG 1.1//EN" "http://www.w3.org/Graphics/SVG/1.1/DTD/svg11.dtd">
<svg version="1.1" id="Layer_1" xmlns="http://www.w3.org/2000/svg" xmlns:xlink="http://www.w3.org/1999/xlink" x="0px" y="0px"
	 viewBox="0 0 270 70" enable-background="new 0 0 270 70" xml:space="preserve">
<path fill="none" stroke="#FFFFFF" stroke-width="4" stroke-linecap="round" stroke-linejoin="round" stroke-miterlimit="10" d="
	M41.7,18v-3.4c0-6.2-5-11.2-11.2-11.2h-0.2c-6.2,0-11.2,5-11.2,11.2V18"/>
<path fill="none" stroke="#FFFFFF" stroke-width="4" stroke-linecap="round" stroke-linejoin="round" stroke-miterlimit="10" d="
	M5.4,44.5v15.2c0,3.7,3.2,6.7,7.2,6.7H48c4,0,7.2-3,7.2-6.7V25.9c0-3.7-3.2-6.7-7.2-6.7H12.6c-4,0-7.2,3-7.2,6.7V44.5"/>
<path fill="none" stroke="#FFFFFF" stroke-width="4" stroke-linecap="round" stroke-linejoin="round" stroke-miterlimit="10" d="
	M34.5,43.2c2.2-1.3,3.7-3.8,3.7-6.6c0-4.2-3.4-7.8-7.6-7.8s-7.6,3.3-7.6,7.5c0,2.6,1.4,5.4,3.4,6.8L22.7,58H38L34.5,43.2z"/>
<path fill="none" stroke="#FFFFFF" stroke-width="4" stroke-linecap="round" stroke-linejoin="round" stroke-miterlimit="10" d="
	M111.7,18v-3.4c0-6.2-5-11.2-11.2-11.2h-0.2c-6.2,0-11.2,5-11.2,11.2V18"/>
<path fill="none" stroke="#FFFFFF" stroke-width="4" stroke-linecap="round" stroke-linejoin="round" stroke-miterlimit="10" d="
	M75.4,44.5v15.2c0,3.7,3.2,6.7,7.2,6.7H118c4,0,7.2-3,7.2-6.7V25.9c0-3.7-3.2-6.7-7.2-6.7H82.6c-4,0-7.2,3-7.2,6.7V44.5"/>
<path fill="none" stroke="#FFFFFF" stroke-width="4" stroke-linecap="round" stroke-linejoin="round" stroke-miterlimit="10" d="
	M104.5,43.2c2.2-1.3,3.7-3.8,3.7-6.6c0-4.2-3.4-7.8-7.6-7.8c-4.2,0-7.6,3.3-7.6,7.5c0,2.6,1.4,5.4,3.4,6.8L92.7,58H108L104.5,43.2z"
	/>
<path fill="none" stroke="#FFFFFF" stroke-width="4" stroke-linecap="round" stroke-linejoin="round" stroke-miterlimit="10" d="
	M181.7,18v-3.4c0-6.2-5-11.2-11.2-11.2h-0.2c-6.2,0-11.2,5-11.2,11.2V18"/>
<path fill="none" stroke="#FFFFFF" stroke-width="4" stroke-linecap="round" stroke-linejoin="round" stroke-miterlimit="10" d="
	M145.4,44.5v15.2c0,3.7,3.2,6.7,7.2,6.7H188c4,0,7.2-3,7.2-6.7V25.9c0-3.7-3.2-6.7-7.2-6.7h-35.4c-4,0-7.2,3-7.2,6.7V44.5"/>
<path fill="none" stroke="#FFFFFF" stroke-width="4" stroke-linecap="round" stroke-linejoin="round" stroke-miterlimit="10" d="
	M174.5,43.2c2.2-1.3,3.7-3.8,3.7-6.6c0-4.2-3.4-7.8-7.6-7.8s-7.6,3.3-7.6,7.5c0,2.6,1.4,5.4,3.4,6.8L162.7,58H178L174.5,43.2z"/>
<path fill="none" stroke="#FFFFFF" stroke-width="4" stroke-linecap="round" stroke-linejoin="round" stroke-miterlimit="10" d="
	M251.7,18v-3.4c0-6.2-5-11.2-11.2-11.2h-0.2c-6.2,0-11.2,5-11.2,11.2V18"/>
<path fill="none" stroke="#FFFFFF" stroke-width="4" stroke-linecap="round" stroke-linejoin="round" stroke-miterlimit="10" d="
	M215.4,44.5v15.2c0,3.7,3.2,6.7,7.2,6.7H258c4,0,7.2-3,7.2-6.7V25.9c0-3.7-3.2-6.7-7.2-6.7h-35.4c-4,0-7.2,3-7.2,6.7V44.5"/>
<path fill="none" stroke="#FFFFFF" stroke-width="4" stroke-linecap="round" stroke-linejoin="round" stroke-miterlimit="10" d="
	M244.5,43.2c2.2-1.3,3.7-3.8,3.7-6.6c0-4.2-3.4-7.8-7.6-7.8s-7.6,3.3-7.6,7.5c0,2.6,1.4,5.4,3.4,6.8L232.7,58H248L244.5,43.2z"/>
</svg>
