<svg version="1.1" id="Layer_1" xmlns="http://www.w3.org/2000/svg" xmlns:xlink="http://www.w3.org/1999/xlink" x="0px" y="0px"
	 viewBox="0 0 200 200" enable-background="new 0 0 200 200" xml:space="preserve">
<path class='k8-path' d="M0.2,165l0-130c0-5.5,4.5-10,10-10h180c5.5,0,10,4.5,10,10v130c0,5.5-4.5,10-10,10h-180
	C4.6,175,0.2,170.5,0.2,165z"/>
<g id="Layer_2_1_">
	<g id="Ebene_1">
		<path fill="#FFFFFF" d="M100.2,155L100.2,155c0.1-0.2,0.2-0.3,0.4-0.2c0.6,0,1.2,0,1.8,0c0.1,0,0.3,0,0.4,0.1v0.1H100.2z"/>
		<path fill="#FFFFFF" d="M102.7,154.9c-0.8,0-1.7,0-2.5,0c-1.2-0.1-2.3-0.1-3.5-0.2c-3.1-0.2-6.1-0.7-9.1-1.4
			c-10.3-2.4-19.3-7.2-27.1-14.1c-0.7-0.6-1.4-1.3-2.1-2c-0.2-0.1-0.3-0.4-0.4-0.6c-0.1-0.3-0.1-0.6,0.1-0.8
			c0.2-0.2,0.5-0.3,0.8-0.2c0.2,0.1,0.4,0.2,0.5,0.3c7.5,4.6,15.7,8,24.3,10c2.9,0.7,5.8,1.2,8.7,1.6c4.2,0.5,8.4,0.7,12.7,0.6
			c2.3-0.1,4.5-0.3,6.8-0.6c5.3-0.7,10.5-1.9,15.5-3.5c2.7-0.9,5.2-1.9,7.8-3.1c0.4-0.2,0.8-0.3,1.3-0.2c0.7,0.2,1.1,0.9,0.9,1.6
			c0,0.1-0.1,0.2-0.1,0.3c-0.2,0.3-0.4,0.6-0.7,0.8c-2.4,1.9-5,3.5-7.7,4.9c-5.2,2.6-10.7,4.5-16.4,5.5
			C109.3,154.4,106,154.8,102.7,154.9z"/>
		<path fill="#FFFFFF" d="M71.7,112.5c0.5-0.3,1.1-0.6,1.6-0.9c1.5-0.8,3.1-1.1,4.7-1c1.2,0.1,2.3,0.4,3.1,1.3
			c0.8,0.8,1.1,1.8,1.2,2.9c0,0.2,0,0.5,0,0.7v10.8c0,0.9-0.1,1.1-1.1,1.1h-2.6c-0.2,0-0.3,0-0.5,0c-0.3,0-0.5-0.2-0.5-0.5
			c0-0.2,0-0.5,0-0.7v-9.7c0-0.4,0-0.8-0.1-1.2c-0.2-0.6-0.8-1.1-1.4-1.2c-1.2-0.1-2.5,0.2-3.6,0.7c-0.2,0-0.3,0.2-0.3,0.4v11
			c0,0.2,0,0.4,0,0.6c0,0.3-0.2,0.5-0.5,0.5l0,0c-0.3,0-0.6,0-1,0h-2.2c-0.8,0-0.9-0.2-0.9-1v-9.9c0-0.4,0-0.7-0.1-1.1
			c-0.1-0.7-0.8-1.2-1.5-1.3c-1.3-0.1-2.5,0.2-3.7,0.7c-0.2,0-0.3,0.2-0.2,0.4v11.1c0,0.8-0.2,0.9-0.9,0.9h-2.8
			c-0.7,0-0.9-0.2-0.9-0.9v-14.5c0-0.2,0-0.3,0.1-0.5c0.1-0.3,0.3-0.4,0.6-0.4h2.6c0.4,0,0.6,0.2,0.7,0.6c0.1,0.3,0.2,0.6,0.3,0.9
			c0.2,0,0.3-0.1,0.5-0.2c1.2-0.7,2.4-1.3,3.7-1.6c1-0.2,2.1-0.2,3.1,0c1,0.2,1.9,0.8,2.4,1.6C71.6,112.4,71.6,112.4,71.7,112.5
			C71.7,112.5,71.7,112.5,71.7,112.5z"/>
		<path fill="#FFFFFF" d="M115.1,122.9c0.1-0.4,0.3-0.8,0.4-1.2c1-3.2,1.9-6.5,2.9-9.7l0.1-0.4c0.1-0.4,0.5-0.6,0.8-0.6h3.2
			c0.8,0,1,0.2,0.7,1l-1.3,3.3c-1.4,3.6-2.8,7.3-4.2,10.9c0,0.1-0.1,0.3-0.1,0.4c-0.1,0.4-0.6,0.7-1,0.7c-0.9,0-1.8,0-2.8,0
			c-0.6,0-1-0.3-1.3-0.9c-0.5-1.4-1.1-2.8-1.6-4.2c-1.3-3.3-2.5-6.6-3.8-9.9c-0.1-0.3-0.2-0.5-0.3-0.8c-0.1-0.4,0.1-0.6,0.5-0.6
			c1.2,0,2.4,0,3.6,0c0.5,0,0.7,0.3,0.9,0.8c0.2,0.8,0.5,1.6,0.7,2.4C113.3,117.1,114.2,120,115.1,122.9
			C115,122.9,115,122.9,115.1,122.9z"/>
		<path fill="#FFFFFF" d="M40.8,113.3c0.1,0,0.3-0.1,0.4-0.3c0.4-0.4,0.8-0.7,1.2-1.1c1.1-0.8,2.4-1.3,3.8-1.2
			c0.5,0,0.7,0.2,0.8,0.7c0,0.7,0,1.4,0,2.2c0,0.3,0,0.6,0,0.9c-0.1,0.4-0.2,0.5-0.6,0.6c-0.3,0-0.6,0-0.9,0
			c-1.4-0.1-2.8,0.1-4.1,0.6c-0.3,0.1-0.3,0.3-0.3,0.5v10c0,0.2,0,0.4,0,0.5c0,0.3-0.2,0.5-0.5,0.5c-0.1,0-0.3,0-0.5,0h-2.7
			c-0.1,0-0.3,0-0.5,0c-0.3,0-0.5-0.3-0.5-0.5c0-0.2,0-0.3,0-0.5v-14.2c0-1,0.1-1.1,1.1-1.1h2c0.5,0,0.8,0.2,0.9,0.7
			S40.7,112.7,40.8,113.3z"/>
		<path fill="#FFFFFF" d="M138.6,134.5c1.4,0,2.7,0.1,4.1,0.5c0.4,0.1,0.7,0.2,1.1,0.4c0.5,0.2,0.8,0.6,0.9,1.2
			c0.1,0.6,0.1,1.2,0.1,1.8c-0.3,3.6-1.4,7-3.2,10.1c-0.7,1.1-1.5,2.1-2.4,3c-0.2,0.2-0.4,0.3-0.7,0.4c-0.4,0.1-0.6-0.1-0.7-0.5
			c0-0.2,0.1-0.4,0.1-0.6c0.7-2,1.4-3.9,2-5.9c0.3-1.1,0.6-2.2,0.7-3.4c0-0.4,0.1-0.8,0-1.3c0-0.7-0.5-1.3-1.2-1.5
			c-0.6-0.2-1.3-0.3-2-0.4c-1.9-0.1-3.8,0-5.8,0.3l-2.5,0.3c-0.3,0-0.5,0-0.7-0.3c-0.1-0.3-0.1-0.5,0.1-0.8c0.2-0.2,0.4-0.4,0.6-0.6
			c1.5-1.1,3.3-1.8,5.1-2.2C135.7,134.7,137.2,134.6,138.6,134.5z"/>
		<path fill="#FFFFFF" d="M129.9,119.2v7.5c0,0.4-0.2,0.6-0.6,0.6c-1.1,0-2.2,0-3.4,0c-0.4,0-0.6-0.2-0.6-0.6c0-0.1,0-0.3,0-0.4
			v-14.5c0-0.6,0.2-0.8,0.8-0.8h3c0.6,0,0.8,0.2,0.8,0.8L129.9,119.2L129.9,119.2z"/>
		<path fill="#FFFFFF" d="M49,119.1v-7.4c0-0.5,0.2-0.7,0.7-0.7c1.1,0,2.2,0,3.3,0c0.5,0,0.6,0.1,0.7,0.6c0,0.2,0,0.4,0,0.5v13.9
			c0,0.2,0,0.5,0,0.7c0,0.3-0.2,0.5-0.5,0.5c-0.1,0-0.2,0-0.4,0h-2.9c-0.1,0-0.2,0-0.3,0c-0.3,0-0.5-0.3-0.6-0.5c0-0.2,0-0.3,0-0.5
			C49,123.9,49,121.5,49,119.1z"/>
		<path fill="#FFFFFF" d="M51.4,103.5c0.3,0,0.7,0,1,0.1c1.1,0.4,1.7,1.4,1.6,2.6c-0.1,1.1-0.9,2-2,2.1c-0.5,0.1-0.9,0.1-1.4,0
			c-1.2-0.2-2.1-1.1-2-2.6C48.7,104.3,49.7,103.5,51.4,103.5z"/>
		<path fill="#FFFFFF" d="M127.5,103.5c0.4,0,0.8,0,1.2,0.2c0.8,0.3,1.4,1.1,1.4,1.9c0.2,1.9-1.1,2.9-2.8,2.8c-0.2,0-0.5,0-0.7-0.1
			c-1.3-0.3-2-1.3-1.8-2.8c0.1-1.2,1-2,2.2-2.1C127.2,103.5,127.4,103.5,127.5,103.5z"/>
		<path fill="#FFFFFF" d="M33.3,117.4c-0.1-1.1-0.4-2.2-0.8-3.1c-0.9-1.8-2.2-3.1-4.2-3.6c-2.3-0.5-4.4,0-6.3,1.4
			c-0.1,0.1-0.3,0.2-0.4,0.3c0,0-0.1,0-0.1-0.1c-0.1-0.2-0.1-0.4-0.2-0.6c-0.2-0.5-0.4-0.7-0.9-0.7c-0.6,0-1.3,0-1.9,0
			c-0.5,0-0.9,0-1.3,0.4c0,7.3,0,14.7,0,22c0.3,0.4,0.7,0.5,1.2,0.5c0.8,0,1.5,0,2.3,0c1.3,0,1.3,0,1.3-1.3v-6
			c0-0.1-0.1-0.3,0.1-0.4c1,0.8,2.3,1.3,3.6,1.4c1.8,0.2,3.5-0.3,4.9-1.5c1-0.9,1.8-2.2,2.2-3.5C33.4,120.9,33.4,119.2,33.3,117.4z
			 M28.3,121.7c-0.1,0.6-0.5,1.2-1,1.7c-0.5,0.5-1.2,0.7-1.9,0.7c-1.1,0.1-2.1-0.2-3.1-0.7c-0.2-0.1-0.4-0.3-0.4-0.6v-3.8
			c0-1.3,0-2.5,0-3.8c0-0.3,0.1-0.5,0.4-0.6c1.2-0.5,2.3-0.8,3.6-0.5c0.9,0.1,1.6,0.7,2,1.5c0.3,0.7,0.5,1.4,0.5,2.1
			C28.7,119.1,28.7,120.5,28.3,121.7z"/>
		<path fill="#FFFFFF" d="M184.6,120.7C184.6,120.7,184.6,120.7,184.6,120.7C184.6,120.7,184.6,120.7,184.6,120.7z"/>
		<path fill="#FFFFFF" d="M184.6,117.9L184.6,117.9c-0.1,0-0.1-0.1-0.1-0.2v-0.2c0,0,0,0,0,0h0v-0.2h0c0,0,0,0,0,0
			c0-0.4-0.1-0.8-0.2-1.2c-0.8-2.8-2.5-4.6-5.3-5.3c-1.3-0.3-2.7-0.4-4-0.1c-2.8,0.4-4.9,1.9-5.8,4.6c-1,2.6-0.9,5.4,0,7.9
			c0.8,2.3,2.5,3.8,4.9,4.4c1.3,0.3,2.6,0.4,3.9,0.2c4.4-0.5,6.2-3.8,6.5-6.7h0v-0.3c0-0.1,0-0.2,0.1-0.3v0c0,0,0-0.1,0-0.1
			L184.6,117.9C184.6,117.9,184.6,117.9,184.6,117.9z M179.6,121.8c-0.1,0.4-0.3,0.8-0.6,1.2c-0.5,0.6-1.2,1.1-2,1.1
			c-0.4,0-0.8,0-1.2,0c-0.9-0.2-1.6-0.8-2-1.6c-0.3-0.6-0.5-1.4-0.6-2.1c-0.1-1.2-0.1-2.5,0.2-3.7c0.1-0.5,0.3-1,0.6-1.4
			c0.5-0.8,1.3-1.2,2.1-1.3c0.4,0,0.8,0,1.2,0c0.8,0.2,1.5,0.7,1.9,1.5c0.4,0.7,0.6,1.5,0.6,2.4c0,0.4,0,0.8,0,1.1
			C179.9,120.1,179.8,121,179.6,121.8z"/>
		<path fill="#FFFFFF" d="M147.9,103.7H145c-0.8,0-0.9,0.1-0.9,0.9v6.8c0,0.1,0.1,0.3,0,0.4c-0.2,0-0.3-0.1-0.4-0.2
			c-2.2-1.3-4.5-1.5-6.8-0.4c-1.6,0.8-2.6,2.1-3.3,3.7c-0.6,1.5-0.8,3.2-0.7,4.8c0,1.5,0.4,3.1,1,4.5c0.8,1.5,1.9,2.7,3.6,3.2
			c2.3,0.7,4.4,0.4,6.4-1.1c0.1-0.1,0.2-0.2,0.4-0.3c0.1,0.2,0.2,0.5,0.2,0.7c0.1,0.3,0.4,0.6,0.7,0.6h0.5c0.8,0,1.5,0,2.2,0
			c0.6,0,0.8-0.2,0.8-0.8v-22C148.7,103.8,148.6,103.7,147.9,103.7z M144.1,119v3.8c0,0.3-0.1,0.5-0.3,0.6c-1,0.6-2.2,0.8-3.3,0.6
			c-1-0.1-1.8-0.7-2.2-1.5c-0.3-0.7-0.5-1.4-0.6-2.1c-0.2-1.3-0.1-2.7,0.3-3.9c0.1-0.4,0.2-0.7,0.4-1c0.4-0.8,1.3-1.3,2.2-1.4
			c1.1-0.1,2.2,0.1,3.2,0.6c0.3,0.1,0.4,0.3,0.4,0.6C144.1,116.5,144.1,117.8,144.1,119L144.1,119z"/>
		<path fill="#FFFFFF" d="M90,120.5c1.6,0.3,3.2,0.3,4.7,0.1c0.9-0.1,1.8-0.4,2.6-0.8c0.9-0.5,1.6-1.3,1.9-2.3
			c0.7-2.6-0.4-5.3-3.1-6.3c-1.3-0.4-2.8-0.6-4.2-0.4c-3.3,0.4-5.5,2.2-6.4,5.4c-0.7,2.2-0.6,4.3,0,6.5c0.7,2.8,2.6,4.4,5.4,5
			c1.6,0.4,3.2,0.3,4.8,0c0.8-0.1,1.7-0.4,2.5-0.7c0.5-0.2,0.7-0.5,0.7-1c0-0.5,0-1,0-1.5c0-0.6-0.3-0.8-0.9-0.7s-1.2,0.3-1.8,0.4
			c-1.3,0.3-2.6,0.3-3.9,0c-1.8-0.4-2.9-1.9-2.8-3.8C89.6,120.4,89.8,120.4,90,120.5z M89.5,117.3c0.1-0.5,0.2-1,0.4-1.4
			c0.6-1.5,1.9-2,3.3-2c0.4,0,0.8,0.1,1.1,0.3c0.5,0.2,0.9,0.7,1,1.3c0.1,0.4,0,0.7-0.1,1.1c-0.3,0.8-0.9,1.1-1.6,1.2
			c-0.4,0.1-0.9,0.1-1.4,0.1c-0.8,0-1.7-0.1-2.5-0.2C89.5,117.6,89.5,117.6,89.5,117.3z"/>
		<path fill="#FFFFFF" d="M160.6,120.7c1.2-0.1,2.4-0.3,3.5-0.9c1.1-0.5,1.9-1.6,2.1-2.8c0.1-0.8,0.1-1.5,0-2.3
			c-0.4-1.9-1.6-3.1-3.4-3.7c-1-0.3-2.1-0.4-3.1-0.4c-3.5,0.1-6.2,1.9-7.3,5.4c-0.7,2.3-0.6,4.7,0.1,7c0.7,2.4,2.4,3.8,4.8,4.5
			c1,0.3,2.1,0.4,3.1,0.3c1.5,0,3.1-0.3,4.5-0.9c0.6-0.2,0.8-0.4,0.8-1.1v-1.5c0-0.6-0.3-0.8-0.9-0.7c-0.5,0.1-0.9,0.2-1.4,0.3
			c-1.4,0.3-2.9,0.4-4.3,0.1c-1.4-0.3-2.4-1.1-2.8-2.5c-0.1-0.4-0.2-0.8-0.2-1.3c0.1,0,0.2,0,0.3,0
			C157.8,120.7,159.2,120.8,160.6,120.7z M156.2,117.3c0.1-0.8,0.3-1.6,0.8-2.3c0.8-1,1.8-1.3,3.1-1.2c0.1,0,0.2,0,0.3,0
			c1.5,0.2,1.8,1.4,1.5,2.5c-0.2,0.8-0.9,1.2-1.7,1.3c-0.4,0.1-0.9,0.1-1.3,0.1c-0.9,0-1.7-0.1-2.5-0.2
			C156.2,117.6,156.1,117.5,156.2,117.3L156.2,117.3z"/>
	</g>
</g>
<path fill="#FFFFFF" d="M144.5,58.4c-9.2,0-16.7,7.5-17.1,16.5c-0.4,9.1,7.2,17.7,16.4,17.7c10.1,0,17.4-7.1,17.5-17.1
	C161.4,66.1,153.9,58.5,144.5,58.4z M152.2,76.5c-3.9,1.9-7.7,3.8-11.6,5.7c-1,0.5-1.4,0.3-1.5-0.8c0-3.8,0-7.6,0-11.4
	c0-0.5-0.1-1.1,0.9-1.1c0.3,0.1,0.8,0.3,1.3,0.5c3.6,1.7,7.2,3.4,10.8,5.1c0.4,0.2,1.1,0.3,1.1,0.9
	C153.2,76.1,152.6,76.3,152.2,76.5z"/>
<path fill="#FFFFFF" d="M49,66c3.9-6.2,10.6-4.7,12.9,0.4c1.5-2.8,3.7-4.5,7-4.4c3.9,0.1,6.6,2.6,6.8,6.5c0.4,6.6,0.1,13.3,0,19.9
	c0,1.1-0.4,1.5-1.6,1.6c-5.1,0.3-5.1,0.3-5.2-4.7c-0.1-4.6-0.2-9.2-0.3-13.7c-0.1-2.2-0.7-3-2.6-3c-1.9,0-3.2,1.1-3.3,3
	c-0.4,5-0.3,10.1-0.4,15.1c0,3.3,0,3.4-3.4,3.3c-3.7-0.1-3.2,0.5-3.2-3.2c-0.1-4.9-0.2-9.8-0.3-14.7c-0.1-2.4-1-3.6-2.8-3.7
	c-1.8-0.1-3.2,1.2-3.3,3.5c-0.2,5-0.2,10.1-0.2,15.1c0,2.9-0.1,3-3,3c-3.9-0.1-3.8,1-3.8-3.8c0-7.1,0-14.2,0-21.3
	c0-1.7,0.6-2.5,2.3-2.3c0.1,0,0.1,0,0.2,0C48.7,62.4,48.7,62.4,49,66z"/>
<path fill="#FFFFFF" d="M27.4,61.7c1.3,0,3.2,0.2,4.9,1.1c2.7,1.3,4.2,3.4,4.2,6.4c0.1,3.7,0.2,7.3,0.3,11c0,1.7,0.2,3.2,1.3,4.5
	c0.9,1,0.7,1.8-0.3,2.6c-0.3,0.2-0.5,0.4-0.7,0.6c-3.3,2.7-3.1,3.2-5.8-0.3c-0.7-0.9-1.2-0.4-1.7,0.1c-1.6,1.4-3.4,2.3-5.5,2.5
	c-4.4,0.4-7.5-1.3-8.6-4.9c-1.3-4.2,0.3-8.5,3.9-10.6c2.4-1.3,5-1.6,7.6-2c1-0.2,2.7,0.7,2.7-1.5c0-2.7-0.9-4-3-4.2
	c-1.9-0.2-3.4,0.5-4,2.3c-0.5,1.4-1.4,1.7-2.7,1.5c-0.6-0.1-1.1-0.2-1.7-0.2c-2.5-0.3-2.8-0.8-1.8-3.2
	C18.1,63.7,21.8,61.7,27.4,61.7z M29.6,78.5c-0.3-0.5,0.7-1.5-0.5-1.8c-1.9-0.5-5.2,0.9-6.2,2.7c-0.9,1.7-0.4,4.7,1,5.4
	c1.7,1,4-0.1,5-2.2C29.5,81.4,29.6,80,29.6,78.5z"/>
<path fill="#FFFFFF" d="M92,61.7c2.1,0,4.1,0.3,5.9,1.4c2.3,1.3,3.6,3.3,3.6,6c0,3.5,0.2,7.1,0.2,10.6c0,1.8,0.3,3.5,1.4,4.9
	c0.8,1,0.7,1.8-0.3,2.6c-0.3,0.2-0.5,0.5-0.7,0.7c-3,2.5-3,3.4-5.8-0.2c-0.7-0.9-1.1-0.4-1.6,0.1c-1.7,1.5-3.6,2.4-5.9,2.6
	c-6.5,0.5-10.3-4.5-8.3-10.6c1-3.2,3.4-5,6.4-5.8c1.7-0.5,3.4-0.6,5.1-0.9c0.9-0.2,2.4,0.4,2.6-1.3c0.2-2.2-0.6-3.8-2.1-4.3
	c-1.8-0.6-4.1,0.1-4.7,1.9c-0.6,1.7-1.6,2-3.1,1.6c-0.2-0.1-0.5-0.1-0.8-0.1c-3.4-0.4-3.7-1.1-2-4.1C84.2,62.7,87.9,61.9,92,61.7z
	 M94.6,78.6c-0.5-0.4,0.8-1.5-0.6-1.9c-1.7-0.4-5.1,0.9-6,2.4c-1.2,1.9-0.7,4.9,0.8,5.7c1.9,1,4.1-0.1,5.1-2.4
	C94.5,81.3,94.7,80.1,94.6,78.6z"/>
<path fill="#FFFFFF" d="M170.7,66.7c1.6-3.5,4-5,7.5-4.7c3.2,0.3,5.7,2.7,5.9,5.9c0.4,6.8,0.3,13.5,0.3,20.3c0,1.3-0.5,1.8-1.8,1.8
	c-5.8-0.1-4.9,0.8-5-4.8c-0.1-4.1,0-8.1-0.1-12.2c0-3-1-4.5-2.8-4.6c-1.9-0.1-3.5,1.6-3.6,4.4c-0.2,4.2-0.1,8.4-0.2,12.6
	c0,1,0,1.9,0,2.9c0,1.2-0.5,1.7-1.8,1.7c-6-0.1-5.1,0.8-5.1-4.9c-0.1-6.8,0-13.5,0-20.3c0-1.7,0.5-2.4,2.2-2.2c0.1,0,0.1,0,0.2,0
	C170.2,62.4,170.2,62.4,170.7,66.7z"/>
<path fill="#FFFFFF" d="M117.2,67.9c-2.8,0-5.2-0.1-7.6,0c-1.4,0.1-2-0.5-1.9-1.9c0-0.1,0-0.3,0-0.4c0-3.2,0-3.2,3.1-3.2
	c4.4,0,8.8,0,13.2,0c1.5,0,2,0.6,2,2.1c0,1.7-0.3,3.1-1.3,4.5c-2.8,3.8-5.4,7.8-8.3,11.9c2.8,0.2,5.3,0.4,7.6,1.4
	c2,0.8,3.3,4.6,2.2,6.5c-0.4,0.7-1,0.5-1.5,0.2c-5.4-2.4-10.7-2.4-16.1,0c-1.3,0.6-1.7,0.2-1.8-1.2c-0.2-2.8,0.2-5.4,2-7.8
	C111.7,76.3,114.2,72.3,117.2,67.9z"/>
</svg>
