<!DOCTYPE svg PUBLIC "-//W3C//DTD SVG 1.1//EN" "http://www.w3.org/Graphics/SVG/1.1/DTD/svg11.dtd">
<svg version="1.1" id="Layer_1" xmlns="http://www.w3.org/2000/svg" xmlns:xlink="http://www.w3.org/1999/xlink" x="0px" y="0px"
	 viewBox="0 0 200 200" enable-background="new 0 0 200 200" xml:space="preserve">
<path class='k8-path' d="M190,200H10c-5.5,0-10-4.5-10-10V10C0,4.5,4.5,0,10,0h180c5.5,0,10,4.5,10,10v180
	C200,195.5,195.5,200,190,200z"/>
<path fill="#FFFFFF" d="M175.6,57.6v33.3l-4.5,4.5l-4.5,4.5l4.5,4.5l4.5,4.5v33.3v33.3H100H24.4v-33.2V109l4.5-4.5l4.5-4.5l-4.5-4.5
	L24.4,91V57.6V24.4H100h75.6L175.6,57.6L175.6,57.6z M31.7,59.7v28l6.1,6.1L44,100l-6.2,6.2l-6.1,6.1v28v28H100h68.3v-28v-28
	l-6.1-6.1L156,100l6.2-6.2l6.1-6.1v-28v-28H100H31.7V59.7z"/>
<path fill="#FFFFFF" d="M86.5,53.9l4.8,4.8V70v11.3L86.5,86l-4.8,4.8H69.1H56.5V69.9V49.1h12.7h12.7L86.5,53.9z M63.8,70v13.5h7.4
	h7.4l2.4-2.6l2.4-2.6V70v-8.3L81,59l-2.5-2.6h-7.4h-7.4V70z"/>
<path fill="#FFFFFF" d="M138.4,69.9c4.7,11.4,8.6,20.7,8.6,20.8s-1.8,0.1-4,0.1h-4l-1-2.5l-1-2.5h-10.6h-10.6l-1,2.4l-1,2.4l-4,0.1
	c-3.2,0-4,0-4-0.2c0.1-0.2,3.9-9.4,8.5-20.6c4.6-11.2,8.5-20.4,8.5-20.6c0.1-0.2,0.9-0.3,3.6-0.2l3.4,0.1L138.4,69.9z M122.7,69.2
	c-1.9,4.6-3.6,8.6-3.6,8.8c-0.1,0.4,0.3,0.4,7.3,0.4c5.9,0,7.4-0.1,7.3-0.3c-0.2-0.6-7.2-17.4-7.3-17.4
	C126.3,60.8,124.7,64.6,122.7,69.2z"/>
<polygon fill="#FFFFFF" points="88.1,112.8 88.1,116.5 77.2,130 66.3,143.4 77.2,143.5 88.1,143.5 88.1,147.2 88.1,150.9 
	72.3,150.9 56.5,150.9 56.5,147.1 56.5,143.4 67.4,130 78.4,116.6 67.4,116.5 56.5,116.5 56.5,112.8 56.5,109.2 72.3,109.2 
	88.1,109.2 "/>
<polygon fill="#FFFFFF" points="125.7,124 136.1,138.9 136.2,124 136.2,109.2 139.9,109.2 143.5,109.2 143.5,130 143.5,150.9 
	139.4,150.9 135.2,150.9 125.9,137.4 116.6,123.9 116.5,137.4 116.5,150.9 112.6,150.9 108.7,150.9 108.7,130 108.7,109.2 
	112,109.2 115.3,109.2 "/>
</svg>
