<svg version="1.1" id="Layer_1" xmlns="http://www.w3.org/2000/svg" xmlns:xlink="http://www.w3.org/1999/xlink" x="0px" y="0px"
	 viewBox="0 0 200 200" enable-background="new 0 0 200 200" xml:space="preserve">
<path class='k8-path' d="M0.2,165l0-130c0-5.5,4.5-10,10-10h180c5.5,0,10,4.5,10,10v130c0,5.5-4.5,10-10,10h-180
	C4.6,175,0.2,170.5,0.2,165z"/>
<path fill="#FFFFFF" d="M160,66.4v26.4l-3.6,3.6l-3.6,3.6l3.6,3.6l3.6,3.6v26.4V160h-60H40v-26.3v-26.4l3.6-3.6l3.6-3.6l-3.6-3.6
	L40,92.9V66.4V40h60h60L160,66.4L160,66.4z M45.8,68.1v22.2l4.9,4.9l4.9,4.9l-4.9,4.9l-4.9,4.9V132v22.2H100h54.2V132v-22.2
	l-4.9-4.9l-4.9-4.9l4.9-4.9l4.9-4.9V68.1V45.8H100H45.8V68.1z"/>
<path fill="#FFFFFF" d="M89.3,63.4l3.8,3.8v9v9L89.3,89l-3.8,3.8h-10h-10V76.2V59.6h10h10L89.3,63.4z M71.3,76.2v10.7h5.9h5.9
	l1.9-2.1l1.9-2.1v-6.6v-6.6l-2-2.1l-2-2.1h-5.9h-5.8V76.2z"/>
<path fill="#FFFFFF" d="M130.5,76.2c3.8,9,6.8,16.4,6.8,16.5c0,0.1-1.4,0.1-3.2,0.1h-3.2l-0.8-2l-0.8-2h-8.4h-8.4l-0.8,1.9l-0.8,1.9
	l-3.2,0.1c-2.5,0-3.2,0-3.1-0.2c0.1-0.1,3.1-7.5,6.8-16.3c3.7-8.9,6.7-16.2,6.8-16.3c0.1-0.2,0.7-0.2,2.8-0.2l2.7,0.1L130.5,76.2z
	 M118,75.6c-1.5,3.7-2.8,6.8-2.9,7c-0.1,0.3,0.2,0.3,5.8,0.3c4.7,0,5.8-0.1,5.8-0.2c-0.1-0.5-5.7-13.8-5.8-13.8
	C120.8,68.9,119.6,72,118,75.6z"/>
<polygon fill="#FFFFFF" points="90.6,110.2 90.6,113.1 81.9,123.8 73.3,134.5 81.9,134.5 90.6,134.6 90.6,137.5 90.6,140.4 
	78,140.4 65.5,140.4 65.5,137.4 65.5,134.5 74.2,123.8 82.9,113.2 74.1,113.2 65.5,113.1 65.5,110.2 65.5,107.3 78,107.3 
	90.6,107.3 "/>
<polygon fill="#FFFFFF" points="120.4,119.1 128.6,130.9 128.7,119.1 128.7,107.3 131.6,107.3 134.5,107.3 134.5,123.8 134.5,140.4 
	131.2,140.4 127.9,140.4 120.5,129.7 113.2,119 113.1,129.7 113.1,140.4 110,140.4 106.9,140.4 106.9,123.8 106.9,107.3 
	109.5,107.3 112.1,107.3 "/>
</svg>
