<!DOCTYPE svg PUBLIC "-//W3C//DTD SVG 1.1//EN" "http://www.w3.org/Graphics/SVG/1.1/DTD/svg11.dtd">
<svg version="1.1" id="Layer_1" xmlns="http://www.w3.org/2000/svg" xmlns:xlink="http://www.w3.org/1999/xlink" x="0px" y="0px"
	 viewBox="0 0 200 200" enable-background="new 0 0 200 200" xml:space="preserve">
<path class='k8-path' d="M190,200H10c-5.5,0-10-4.5-10-10V10C0,4.5,4.5,0,10,0h180c5.5,0,10,4.5,10,10v180
	C200,195.5,195.5,200,190,200z"/>
<path fill="#FFFFFF" d="M66.6,92.4h-3.1l-1.8,6.4h3.1c2.5,0,3.3-1.5,3.8-3.2C69,93.8,69.1,92.4,66.6,92.4z M66.6,92.4h-3.1l-1.8,6.4
	h3.1c2.5,0,3.3-1.5,3.8-3.2C69,93.8,69.1,92.4,66.6,92.4z M19.5,84.2l-9,31.9h81.3l9-31.9H19.5z M30.7,108l-1.1,4H16.9l6.7-23.6H36
	l-1.1,4H27l-1.5,5.4h6l-1.1,4h-6l-1.8,6.2H30.7z M41,112.3c-4.6,0-7.3-1.5-5.8-6.7l4.9-17.3h4.5l-4.8,16.9c-0.6,2.3,0.1,3.1,2.3,3.1
	c2.2,0,3.4-0.8,4.1-3.1L51,88.4h4.5l-4.9,17.3C49.2,110.9,45.7,112.3,41,112.3z M72.7,95.6c-0.9,3-2.2,5.4-5,6.5l1.4,9.9h-4.8
	l-1.2-9.3h-2.3l-2.6,9.3h-4.5l6.7-23.7h7.5C73.5,88.4,73.9,91.4,72.7,95.6z M89.7,105.1c-1.6,5.8-5.1,7.2-9.5,7.2
	c-4.4,0-7.1-1.4-5.4-7.2l2.8-9.9c1.6-5.8,5.1-7.2,9.5-7.2c4.4,0,7.1,1.4,5.4,7.2L89.7,105.1z M85.9,92c-1.8,0-3,0.4-3.8,3l-2.9,10.4
	c-0.8,2.6,0.3,3,2.1,3c1.8,0,3-0.3,3.8-3L88,95C88.8,92.4,87.7,92,85.9,92z M66.6,92.4h-3.1l-1.8,6.4h3.1c2.5,0,3.3-1.5,3.8-3.2
	C69,93.8,69.1,92.4,66.6,92.4z"/>
<path fill="#FFFFFF" d="M51.5,121.3C51.5,121.3,51.5,121.3,51.5,121.3L51.5,121.3l0,6.1H59l0,0c0,0,0,0,0,0l-7.5,3.4v6.1
	c0,0,0,0,0,0l-5.2-3.7l-8.1,3.7l0,0c0,0,0,0,0,0l5.1-6l-5.1-3.6c0,0,0,0,0,0c0,0,0,0,0,0h8.1L51.5,121.3 M65.2,136.8
	C65.2,136.8,65.2,136.8,65.2,136.8L65.2,136.8l0,6.1h7.5l0,0c0,0,0,0,0,0l-7.5,3.4v6.1c0,0,0,0,0,0l-5.2-3.7l-8.1,3.7c0,0,0,0,0,0
	l0,0l5.1-6l-5.1-3.6c0,0,0,0,0,0s0,0,0,0H60L65.2,136.8 M89.6,142.5C89.6,142.5,89.6,142.5,89.6,142.5L89.6,142.5l0,6.1h7.5l0,0l0,0
	c0,0,0,0,0,0l-7.5,3.4v6.1c0,0,0,0,0,0l-5.2-3.7l-8.1,3.7c0,0,0,0,0,0l0,0l5.1-6l-5.1-3.6c0,0,0,0,0,0c0,0,0,0,0,0h8.1L89.6,142.5
	 M117.6,136.5L117.6,136.5L117.6,136.5l0,6.1h7.5l0,0l0,0v0l-7.5,3.4v6.1c0,0,0,0,0,0l-5.2-3.7l-8.1,3.7c0,0,0,0,0,0v0l5.1-6
	l-5.1-3.6l0,0h0h8.1L117.6,136.5 M144.7,121.3L144.7,121.3L144.7,121.3l0,6.1h7.5l0,0c0,0,0,0,0,0l-7.5,3.4v6.1c0,0,0,0,0,0
	l-5.2-3.7l-8.1,3.7c0,0,0,0,0,0l0,0l5.1-6l-5.1-3.6c0,0,0,0,0,0c0,0,0,0,0,0h8.1L144.7,121.3 M74,62.4C74,62.4,74,62.4,74,62.4
	L74,62.4l0,6.1h7.5l0,0v0L74,72v6.1c0,0,0,0,0,0l-5.2-3.7l-8.1,3.7l0,0c0,0,0,0,0,0l5.1-6l-5.1-3.6c0,0,0,0,0,0s0,0,0,0h8.1L74,62.4
	 M100.2,48C100.2,48,100.2,48,100.2,48L100.2,48l0,6.1h7.5l0,0l0,0v0l-7.5,3.4v6.1c0,0,0,0,0,0L95,60l-8.1,3.7c0,0,0,0,0,0l0,0
	l5.1-6l-5.1-3.6c0,0,0,0,0,0s0,0,0,0H95L100.2,48 M127.5,41.8C127.5,41.8,127.5,41.8,127.5,41.8L127.5,41.8l0,6.1h7.5l0,0l0,0
	c0,0,0,0,0,0l-7.5,3.4v6.1c0,0,0,0,0,0l-5.2-3.7l-8.1,3.7c0,0,0,0,0,0s0,0,0,0l5.1-6l-5.1-3.6c0,0,0,0,0,0c0,0,0,0,0,0h8.1
	L127.5,41.8 M151.3,48C151.3,48,151.3,48,151.3,48L151.3,48l0,6.1h7.5l0,0l0,0v0l-7.5,3.4v6.1c0,0,0,0,0,0l-5.2-3.7l-8.1,3.7l0,0
	c0,0,0,0,0,0l5.1-6l-5.1-3.6c0,0,0,0,0,0s0,0,0,0h8.1L151.3,48 M166.9,62.4C166.9,62.4,166.9,62.4,166.9,62.4L166.9,62.4l0,6.1h7.5
	h0v0l-7.5,3.4v6.1c0,0,0,0,0,0l-5.2-3.7l-8.1,3.7l0,0c0,0,0,0,0,0l5.1-6l-5.1-3.6c0,0,0,0,0,0s0,0,0,0h8.1L166.9,62.4"/>
<path fill="#FFFFFF" d="M167.3,112l-1.4-9.9c2.8-1.1,4.1-3.5,5-6.5c1.2-4.2,0.7-7.2-4.9-7.2h-2.9h-4.5l-6.7,23.7h4.5l2.6-9.3h2.3
	l1.2,9.3H167.3z M161.6,92.4h3.1c2.5,0,2.4,1.5,1.9,3.2c-0.5,1.7-1.2,3.2-3.8,3.2h-3.1L161.6,92.4 M128,88.4H125h-4.5l-6.7,23.7h4.5
	l2.6-9.3h2.9c5.6,0,7.7-3,8.9-7.2C134,91.3,133.6,88.4,128,88.4 M124.9,98.8h-3.1l1.8-6.4h3.1c2.5,0,2.4,1.5,1.9,3.2
	C128.1,97.3,127.4,98.8,124.9,98.8 M111.2,94.6c-0.1-2.2-0.9-2.8-2.5-2.8c-1.6,0-2.7,0.6-3.1,2.2c-1,3.6,8.7,4.9,6.6,12.3
	c-1.1,4.1-4.5,6-9.2,6c-3.7,0-6-1.6-5.9-6.3l4.7-0.9c-0.3,2.8,1.2,3.5,2.5,3.5c1.6,0,3-0.7,3.5-2.4c1.3-4.4-8.5-5.6-6.6-12.2
	c1.1-4.1,4.1-5.9,8.7-5.9c4,0,5.9,2,5.7,5.4L111.2,94.6 M133.4,105.1c-1.7,5.8,1,7.2,5.4,7.2s7.8-1.4,9.5-7.2l2.8-9.9
	c1.6-5.8-1-7.2-5.4-7.2s-7.8,1.4-9.5,7.2L133.4,105.1z M140.8,95c0.7-2.6,2-3,3.8-3s2.8,0.4,2.1,3l-2.9,10.4c-0.7,2.6-2,3-3.8,3
	c-1.8,0-2.8-0.4-2.1-3L140.8,95 M190.9,88.4l-1.1,4h-5.3L179,112h-4.5l5.6-19.6h-5.3l1.1-4H190.9z"/>
</svg>
