<svg version="1.1" id="Layer_1" xmlns="http://www.w3.org/2000/svg" xmlns:xlink="http://www.w3.org/1999/xlink" x="0px" y="0px"
	 viewBox="0 0 150 150" enable-background="new 0 0 150 150" xml:space="preserve">
<path fill="#424242" d="M8.8,74.2C8.8,74.2,8.8,74.2,8.8,74.2L8.8,74.2C8.8,74.2,8.8,74.2,8.8,74.2z"/>
<path fill="#00B2E2" d="M147.5,74.1c-0.1,7.2-1.2,14.4-3.1,21.6c-2.8,8.7-7.1,16.8-12.8,23.8c-5.7,7-12.6,13-20.4,17.5
	c-23.6,13.6-53.9,12.9-76.7-2.3c-7.4-5-13.9-11.3-19-18.6C-3.8,88.9-1.4,50.1,21.7,25.7c1.8-1.9,3.8-3.8,5.8-5.5
	C34.2,14.5,42,10,50.3,7.2c14.7-5.1,30.4-5,45.2-0.5c0,0,6.1,2.3,6.1,2.3c1.1,0.4,1.7,1.7,1.3,2.8c-0.4,1.1-1.6,1.7-2.7,1.3
	c0,0-0.2-0.1-0.2-0.1C84.2,7.4,67.9,6.2,52,12c-7.7,2.8-14.7,7-20.8,12.3C6.2,46.3,1.7,85,21.4,111.9c4.7,6.5,10.6,12,17.3,16.3
	c20.2,13,47.1,13.5,67.8,1c6.8-4.1,12.8-9.4,17.6-15.6c4.8-6.2,8.5-13.3,10.7-20.8c4.5-15,3.1-31.6-3.7-45.7
	c-2.6-5.3-5.9-10.2-9.8-14.6L83.4,72.2l23.4,23.4c3.2,3.2,3.2,8.4,0,11.6c-1.6,1.6-3.7,2.4-5.8,2.4c-2.1,0-4.2-0.8-5.8-2.4L72,84.1
	L50.2,107c-3.1,3.3-8.3,3.4-11.6,0.3c-3.3-3.1-3.4-8.3-0.3-11.6c0.1-0.1,0.2-0.2,0.3-0.3l22.9-21.8L38.5,50.6
	c-3.2-3.2-3.2-8.4,0-11.6c3.2-3.2,8.4-3.2,11.6,0l23.2,23.2l43.8-41.8l0.2-0.2c1.1-1,2.5-1.5,3.8-1.5l0.4,0c1.4,0,2.6,0.6,3.5,1.5
	c6.6,6.3,12,13.9,15.8,22.2C145.7,52.6,147.7,63.3,147.5,74.1z"/>
<path fill="#424242" d="M8.8,74.2L8.8,74.2l0,0.1L8.8,74.2C8.8,74.2,8.8,74.2,8.8,74.2z"/>
</svg>
