<svg version="1.1" id="Layer_1" xmlns="http://www.w3.org/2000/svg" xmlns:xlink="http://www.w3.org/1999/xlink" x="0px" y="0px"
	 viewBox="0 0 200 200" enable-background="new 0 0 200 200" xml:space="preserve">
<path class='k8-path' d="M0.2,165l0-130c0-5.5,4.5-10,10-10h180c5.5,0,10,4.5,10,10v130c0,5.5-4.5,10-10,10h-180
	C4.6,175,0.2,170.5,0.2,165z"/>
<g>
	<path fill="#FFFFFF" d="M99.3,148.6c-2.8,0-5-2.3-5-5c0-2.8,2.3-5,5-5c2.8,0,5,2.2,5,5v0C104.4,146.3,102.1,148.6,99.3,148.6
		 M104.4,135.2c-1.5-0.9-3.2-1.4-5.2-1.4c-5.6,0-9.9,4.4-9.9,9.7c0,5.4,4.3,9.7,9.9,9.7c5.6,0,9.8-4.2,9.9-9.5h0v-18.2h-4.8
		L104.4,135.2L104.4,135.2z"/>
	<polygon fill="#FFFFFF" points="88.5,134.2 82.8,134.2 79.1,139.5 75.4,134.2 69.7,134.2 76,142.9 68.8,152.9 74.7,152.9 
		79.1,146.6 83.5,152.9 89.4,152.9 82.3,142.9 	"/>
	<path fill="#FFFFFF" d="M121.9,148.6c-2.8,0-5-2.3-5-5c0-2.8,2.3-5,5-5c2.8,0,5,2.3,5,5C126.9,146.3,124.7,148.6,121.9,148.6
		 M121.8,133.8c-5.6,0-9.9,4.4-9.9,9.7c0,5.4,4.3,9.7,9.9,9.7c5.7,0,9.9-4.3,9.9-9.7C131.7,138.2,127.4,133.8,121.8,133.8"/>
	<path fill="#FFFFFF" d="M57.2,148.5c-2.8,0-5-2.3-5-5c0-2.8,2.3-5,5-5s5,2.3,5,5C62.2,146.3,60,148.5,57.2,148.5 M57.1,133.8
		c-5.6,0-9.9,4.3-9.9,9.7c0,5.4,4.3,9.7,9.9,9.7c1.9,0,3.7-0.5,5.2-1.4v1.1H67v-9.5h0C66.9,138,62.7,133.8,57.1,133.8"/>
	<path fill="#FFFFFF" d="M36.2,133.8c0,0-0.1,0-0.1,0c0,0-0.1,0-0.1,0c-2.2,0-4.4,0.9-5.9,2.3c-1.5-1.5-3.7-2.3-5.9-2.3
		c0,0-0.1,0-0.1,0c0,0-0.1,0-0.1,0c-2.6,0-5,1.1-6.5,3c-1.2,1.4-1.9,3.4-1.9,6.2v9.9h5v-10.1c0-1.7,0.3-2.5,0.9-3.2
		c0.7-0.8,1.7-1.1,2.6-1.1c0.9,0,1.9,0.4,2.6,1.1c0.6,0.6,0.9,1.5,0.9,3.2v10.1h0h5h0v-10.1c0-1.7,0.3-2.5,0.9-3.2
		c0.7-0.8,1.7-1.1,2.6-1.1c0.9,0,1.9,0.4,2.6,1.1c0.6,0.6,0.9,1.5,0.9,3.2v10.1h5V143c0-2.8-0.7-4.7-1.9-6.2
		C41.3,135,38.8,133.8,36.2,133.8"/>
	<path fill="#FFFFFF" d="M155,133.8c0,0-0.1,0-0.1,0c0,0-0.1,0-0.1,0c-2.2,0-4.4,0.9-5.9,2.3c-1.5-1.5-3.7-2.3-5.9-2.3
		c0,0-0.1,0-0.1,0c0,0-0.1,0-0.1,0c-2.6,0-5,1.1-6.5,3c-1.2,1.4-1.9,3.4-1.9,6.2v9.9h5v-10.1c0-1.7,0.3-2.5,0.9-3.2
		c0.7-0.8,1.7-1.1,2.6-1.1c0.9,0,1.9,0.4,2.6,1.1c0.6,0.6,0.9,1.5,0.9,3.2v10.1h0h5h0v-10.1c0-1.7,0.3-2.5,0.9-3.2
		c0.7-0.8,1.7-1.1,2.6-1.1c0.9,0,1.9,0.4,2.6,1.1c0.6,0.6,0.9,1.5,0.9,3.2v10.1h5V143c0-2.8-0.7-4.7-1.9-6.2
		C160,135,157.6,133.8,155,133.8"/>
	<path fill="#FFFFFF" d="M171.1,141.1c0.2-1.7,2-3.3,4.1-3.3c2.1,0,3.7,1.6,3.8,3.3H171.1z M184.4,143.4c0-5.2-3.8-9.6-9.1-9.6
		c-5.7,0-9.4,4.6-9.4,9.7c0,5.9,4.3,9.7,10.1,9.7c3,0,6.1-1.2,7.9-3.3l-3-2.8c-0.9,1-2.7,2.1-4.9,2.1c-2.8,0-4.9-1.8-5.2-4.4h13.4
		C184.4,144.4,184.4,143.9,184.4,143.4"/>
</g>
<path fill="#FFFFFF" d="M100,35.9c-21.5-0.1-39.2,17.5-39.3,38.9c-0.2,21.5,17,39.5,38.9,39.7c22,0.2,39.7-17.3,39.7-39
	C139.4,53.5,121.9,35.9,100,35.9z M88.9,91c-0.2-0.3-0.1-0.6-0.1-0.9c0-9.9,0-19.8,0-29.7c0-1,0-1,0.9-0.6c9.8,5,19.6,10,29.4,15
	c0.2,0.1,0.5,0.2,0.6,0.5C109.3,80.6,99.1,85.8,88.9,91z"/>
</svg>
