<!DOCTYPE svg PUBLIC "-//W3C//DTD SVG 1.1//EN" "http://www.w3.org/Graphics/SVG/1.1/DTD/svg11.dtd">
<svg version="1.1" id="Layer_1" xmlns="http://www.w3.org/2000/svg" xmlns:xlink="http://www.w3.org/1999/xlink" x="0px" y="0px"
	 viewBox="0 0 200 200" enable-background="new 0 0 200 200" xml:space="preserve">
<path class='k8-path' d="M190,200H10c-5.5,0-10-4.5-10-10V10C0,4.5,4.5,0,10,0h180c5.5,0,10,4.5,10,10v180
	C200,195.5,195.5,200,190,200z"/>
<path fill="#FFFFFF" d="M43.7,119.1c-2.4,0.4-4.9,0.6-7.5,0.9l-7.8-23V121c-2.4,0.3-4.7,0.6-7,0.9V78.1h6.5l8.9,24.9V78.1h6.9
	L43.7,119.1L43.7,119.1z M57.2,94.1c2.7,0,6.7-0.1,9.2-0.1v6.9c-3,0-6.6,0-9.2,0.1v10.2c4-0.3,8.1-0.6,12.1-0.7v6.6l-19,1.5V78.1h19
	v6.9H57.2C57.2,84.9,57.2,94.1,57.2,94.1z M94.8,84.9h-7.1v31.5c-2.3,0-4.6,0-6.9,0.1V84.9h-7.1v-6.9h21.1
	C94.8,78.1,94.8,84.9,94.8,84.9z M105.9,93.7h9.4v6.9h-9.4v15.6h-6.7v-38h19.2v6.9h-12.4C105.9,84.9,105.9,93.7,105.9,93.7z
	 M129.5,110.1c3.9,0.1,7.8,0.4,11.7,0.6v6.8c-6.1-0.4-12.3-0.8-18.5-0.9V78.1h6.9V110.1L129.5,110.1z M146.9,117.9
	c2.2,0.1,4.5,0.3,6.7,0.5V78.1h-6.7V117.9z M183.7,78.1L175,98.9l8.7,23c-2.6-0.3-5.1-0.8-7.7-1.2l-4.9-12.7l-5,11.7
	c-2.5-0.4-4.9-0.6-7.4-0.9l8.8-20.1l-8-20.6h7.4l4.5,11.5l4.8-11.5L183.7,78.1L183.7,78.1z"/>
</svg>
