<!DOCTYPE svg PUBLIC "-//W3C//DTD SVG 1.1//EN" "http://www.w3.org/Graphics/SVG/1.1/DTD/svg11.dtd">
<svg version="1.1" id="Layer_1" xmlns="http://www.w3.org/2000/svg" xmlns:xlink="http://www.w3.org/1999/xlink" x="0px" y="0px"
	 viewBox="0 0 200 200" enable-background="new 0 0 200 200" xml:space="preserve">
<path class='k8-path' d="M190,200H10c-5.5,0-10-4.5-10-10V10C0,4.5,4.5,0,10,0h180c5.5,0,10,4.5,10,10v180
	C200,195.5,195.5,200,190,200z"/>
<path id="path5649" fill="#FFFFFF" d="M83.1,58.5c-3,0-5.1,1.5-5.1,5.2v64.7c0,1.4,1,2.1,2.2,2.1h7.5c3,0,5.1-1.5,5.1-5.2V60.6
	c0-1.4-1-2.1-2.2-2.1H83.1z M43.9,80.5c-11.5,0-17.5,6.6-17.5,15.1c0,7.5,4.6,12.1,13.9,14.2l14.8,3.3c3,0.7,3.9,1.5,3.9,3.1
	c0,1.2-0.9,2.1-3.6,2.1H32.4c-3.7,0-5.1,2.1-5.1,5.1v4.8c0,1.2,0.6,2.2,2,2.2h25.1c13.6,0,19.1-6.7,19.1-14.5
	c0-8.1-4.7-12.7-13.9-14.8l-14.8-3.3c-3-0.7-3.9-1.5-3.9-3.1c0-1.2,0.9-2.1,3.6-2.1h22c3.7,0,5.1-2.1,5.1-5.1v-4.8
	c0-1.2-0.6-2.2-2-2.2H43.9z M117.7,80.5c-2.3,0-3.5,0.6-4.8,2.1l-19.2,20.6l17.2,25.1c1,1.4,1.8,2.1,3.3,2.1h10.2
	c1.5,0,2.4-0.6,2.4-1.9c0-0.8-0.4-1.3-0.9-2l-15.1-22.4l11.5-12.4l22.6,33.5l-10,21.2c-0.3,0.6-0.6,1.2-0.6,1.8
	c0,1.2,0.9,1.8,2.1,1.8h9.1c1.9,0,2.6-0.6,3.3-2.1l29.5-63.7c0.3-0.6,0.6-1.2,0.6-1.8c0-1.2-0.9-1.8-2.1-1.8h-9.2
	c-1.8,0-2.7,0.6-3.3,2.1l-12.9,28.7l-18-28.4c-1.1-1.8-2.3-2.4-5-2.4H117.7z"/>
</svg>
