<svg version="1.1" id="Layer_1" xmlns="http://www.w3.org/2000/svg" xmlns:xlink="http://www.w3.org/1999/xlink" x="0px" y="0px"
	 viewBox="0 0 150 150" enable-background="new 0 0 150 150" xml:space="preserve">
<path fill="#33CC99" d="M147.7,73.9c-0.2,17.6-6.4,35.2-18.3,48.6c-2.3,2.6-4.9,5.1-7.6,7.4c-24.8,20.9-62.6,22.8-89.2,3.9
	c-3.2-2.3-6.3-4.9-9.1-7.6c-6.4-6.3-11.5-13.8-15.2-21.9C-2.6,79.7,1.2,49.8,18.5,29c5.6-6.8,12.5-12.6,20.2-16.9
	C62-1,91.4,0.3,113.6,15.3c1.1,0.7,1.4,2.2,0.7,3.3c-0.7,1.1-2.2,1.4-3.3,0.7c0,0,0,0,0,0c-7.1-3.6-13.5-7.4-21.4-9.2
	C73.4,6.4,56,9,41.7,17.3c-7,4-13.2,9.4-18.2,15.7c-5,6.3-8.9,13.5-11.2,21.2C7.5,69.5,8.6,86.4,15.4,101
	c3.4,7.2,8.1,13.8,13.8,19.3c23.5,22.5,61.7,23.5,86.3,2.2c22.2-19.3,28.2-52.9,13.7-78.7l-59.2,63.7l-0.3,0.3
	c-3.1,3.4-8.4,3.5-11.7,0.4c-0.2-0.2-0.5-0.5-0.7-0.7L32.5,78.2c-2-2.4-1.7-6,0.7-8c2.2-1.8,5.3-1.8,7.3,0l22.6,19L126,30.5l0.2-0.2
	c2.3-2.1,5.8-2,7.9,0.3c0.2,0.2,0.4,0.4,0.5,0.6C143.6,43.7,147.8,58.8,147.7,73.9z"/>
</svg>
