<!DOCTYPE svg PUBLIC "-//W3C//DTD SVG 1.1//EN" "http://www.w3.org/Graphics/SVG/1.1/DTD/svg11.dtd">
<svg version="1.1" id="Layer_1" xmlns="http://www.w3.org/2000/svg" xmlns:xlink="http://www.w3.org/1999/xlink" x="0px" y="0px"
	 viewBox="0 0 200 200" enable-background="new 0 0 200 200" xml:space="preserve">
<path class='k8-path' d="M190,200H10c-5.5,0-10-4.5-10-10V10C0,4.5,4.5,0,10,0h180c5.5,0,10,4.5,10,10v180
	C200,195.5,195.5,200,190,200z"/>
<path id="schwarz" fill="#FFFFFF" d="M168.4,85.1c-2.5,0-5,0.1-7.5,0.2c-2.4,0.2-4.5,1.2-5.9,2.7c1.5,2.7,2.3,5.8,2.3,9.2
	c0,3.4-0.9,6.6-2.4,9.4c1.4,1.6,3.6,2.6,6,2.8c5,0.3,10,0.3,14.9,0c4-0.4,7.1-2.9,7.6-6.1c0.4-4,0.4-8,0-11.9
	c-0.5-3.2-3.6-5.7-7.6-6.1C173.4,85.2,170.9,85.1,168.4,85.1z M18.5,85.5V92h13.4l-14.2,10.9l-0.2,0.1c-0.8,0.7-1.3,1.7-1.3,2.8
	c0,1.9,1.6,3.5,3.5,3.6h21.4l0.1-6.4H28.9L43.1,92c0.9-0.7,1.5-1.7,1.5-2.9c0-2-1.6-3.6-3.6-3.6H18.5z M53.8,85.5l-12.1,23.8h8.4
	l1.9-4h12.8l2,4h8.4L62.9,85.5H53.8z M70.7,85.5v6.6h7.8v17.2h7.9V92.1h7.8v-6.6H70.7z M96,85.5v6.6h7.8v17.2h7.9V92.1h2.9
	c0.7-2.4,1.8-4.7,3.3-6.6H96z M168.4,91.3c1.5,0,3,0.1,4.6,0.2c1.4,0.1,2.5,1.1,2.7,2.2c0.3,2.5,0.3,5,0,7.5
	c-0.2,1.1-1.3,2.1-2.7,2.2c-3,0.2-6.1,0.2-9.1,0c-1.4-0.1-2.5-1.1-2.7-2.2c-0.3-2.5-0.3-5,0-7.5c0.2-1.1,1.3-2.1,2.7-2.2
	C165.4,91.4,166.9,91.3,168.4,91.3z M58.3,92.4l3.5,7.1h-6.9L58.3,92.4z"/>
<path fill="#FFFFFF" d="M135.6,79.1c-10.8,0-19.6,8.1-19.6,18.1c0,10,8.8,18.1,19.6,18.1c10.8,0,19.6-8.1,19.6-18.1
	C155.2,87.2,146.4,79.1,135.6,79.1z M145.6,103.5c-0.5,2.3-1.5,3.2-3.9,3.4c-4.1,0.3-9.8-0.3-13.2-1c-1.3-0.3-2-0.5-3.1-0.8
	c-1.4-0.4-2.5-1.2-2.9-3.2c-0.5-2.5-0.7-6.6-0.2-9.9c0.3-1.5,1.2-2.6,2.6-3.1c3.1-1.2,11.2-2.7,17.4-2.2c1.6,0.1,3.1,1.4,3.4,3.2
	c0.1,0.8,0.2,1.7,0.3,2.6C146.3,96.2,146.2,100.3,145.6,103.5z"/>
<path id="antenne" fill="#FFFFFF" d="M144.2,68.7l1.2,0.9L135.1,83l-0.6,0.8l-0.6-0.7l-8-9.8l1.2-1l7.4,9.1"/>
</svg>
